<svg width="30" height="32" viewBox="0 0 30 32" fill="none" xmlns="http://www.w3.org/2000/svg">
<path d="M12.8156 28.0976H3.12195V12.4878H24.9756V19.3249L28.0976 16.2029V6.2439C28.0976 4.52683 26.6927 3.12195 24.9756 3.12195H23.4146V0H20.2927V3.12195H7.80488V0H4.68293V3.12195H3.12195C1.38927 3.12195 0.0156097 4.52683 0.0156097 6.2439L0 28.0976C0 28.9256 0.328919 29.7196 0.914398 30.3051C1.49988 30.8906 2.29396 31.2195 3.12195 31.2195H15.9376L12.8156 28.0976ZM21.1356 32L15.6098 26.4741L17.8107 24.2732L21.12 27.5824L27.7385 20.9639L29.9395 23.1649L21.1356 32ZM11.5668 18.7317L14.0488 21.2137L11.8478 23.4146L9.36585 20.9327L6.8839 23.4146L4.68293 21.2137L7.16488 18.7317L4.68293 16.2498L6.8839 14.0488L9.36585 16.5307L11.8478 14.0488L14.0488 16.2498L11.5668 18.7317Z" fill="#828282"/>
</svg>
