<svg width="38" height="32" viewBox="0 0 38 32" fill="none" xmlns="http://www.w3.org/2000/svg">
<path d="M29.3335 17.3333L31.8828 22.2706L37.3335 23.0626L33.3335 26.6666L34.3615 31.9999L29.3335 28.9999L24.3055 31.9999L25.3335 26.6666L21.3335 23.0626L26.9335 22.2706L29.3335 17.3333Z" fill="#828282"/>
<path d="M5.3335 16H13.3335V18.6667H5.3335V16Z" fill="#828282"/>
<path d="M5.3335 10.6667H18.6668V13.3334H5.3335V10.6667Z" fill="#828282"/>
<path d="M5.3335 5.33325H18.6668V7.99992H5.3335V5.33325Z" fill="#828282"/>
<path d="M18.6667 29.3333H2.66667V2.66667H34.6667V16H37.3333V2.66667C37.3333 1.95942 37.0524 1.28115 36.5523 0.781048C36.0522 0.280951 35.3739 0 34.6667 0H2.66667C1.95942 0 1.28115 0.280951 0.781048 0.781048C0.280951 1.28115 0 1.95942 0 2.66667V29.3333C0 30.0406 0.280951 30.7189 0.781048 31.219C1.28115 31.719 1.95942 32 2.66667 32H18.6667V29.3333Z" fill="#828282"/>
</svg>
