<svg width="41" height="41" viewBox="0 0 41 41" fill="none" xmlns="http://www.w3.org/2000/svg">
<path d="M0.833252 12.7488C0.833006 11.1541 1.11884 9.57538 1.67406 8.10488C2.22927 6.63437 3.04273 5.30157 4.06688 4.18437C5.09103 3.06717 6.30534 2.18798 7.63882 1.59819C8.97231 1.0084 10.3982 0.719842 11.8333 0.749372C13.5312 0.739354 15.2116 1.1304 16.7632 1.89658C18.3148 2.66277 19.7022 3.7866 20.8333 5.19359C21.9643 3.7866 23.3517 2.66277 24.9033 1.89658C26.4549 1.1304 28.1353 0.739354 29.8333 0.749372C31.2683 0.719842 32.6942 1.0084 34.0277 1.59819C35.3612 2.18798 36.5755 3.06717 37.5996 4.18437C38.6238 5.30157 39.4372 6.63437 39.9924 8.10488C40.5477 9.57538 40.8335 11.1541 40.8333 12.7488C40.8333 24.6504 28.0753 33.6366 20.8333 40.7473C13.6073 33.5766 0.833252 24.6593 0.833252 12.7488Z" fill="#EB5757"/>
</svg>
