<svg width="40" height="40" viewBox="0 0 40 40" fill="none" xmlns="http://www.w3.org/2000/svg">
<path fill-rule="evenodd" clip-rule="evenodd" d="M19.9999 8.48333L17.6337 6.46832C16.1109 5.5368 14.3286 5 12.4999 5C7.36659 5 3.33325 9.03333 3.33325 14.1667C3.33325 20.4615 8.99062 25.5916 17.5621 33.3642L17.5833 33.3833L19.9999 35.5833L22.4166 33.4L22.4824 33.3402C31.0289 25.5737 36.6666 20.4506 36.6666 14.1667C36.6666 9.03333 32.6333 5 27.4999 5C25.6712 5 23.8889 5.5368 22.3662 6.46832L19.9999 8.48333ZM32.2332 18.1249C30.6074 21.1503 28.1163 23.7164 20.1748 30.9331L20.0084 31.0834L19.8272 30.9184C11.9154 23.744 9.40751 21.165 7.7766 18.1429C7.01982 16.7406 6.66659 15.463 6.66659 14.1667C6.66659 10.8743 9.20753 8.33333 12.4999 8.33333C14.3704 8.33333 16.2439 9.21391 17.4621 10.6445L19.9999 13.6247L22.5378 10.6445C23.756 9.21391 25.6295 8.33333 27.4999 8.33333C30.7923 8.33333 33.3333 10.8743 33.3333 14.1667C33.3333 15.4573 32.9831 16.7293 32.2332 18.1249Z" fill="#F4EADE"/>
<mask id="mask0_1002_14943" style="mask-type:alpha" maskUnits="userSpaceOnUse" x="3" y="5" width="34" height="31">
<path fill-rule="evenodd" clip-rule="evenodd" d="M19.9999 8.48333L17.6337 6.46832C16.1109 5.5368 14.3286 5 12.4999 5C7.36659 5 3.33325 9.03333 3.33325 14.1667C3.33325 20.4615 8.99062 25.5916 17.5621 33.3642L17.5833 33.3833L19.9999 35.5833L22.4166 33.4L22.4824 33.3402C31.0289 25.5737 36.6666 20.4506 36.6666 14.1667C36.6666 9.03333 32.6333 5 27.4999 5C25.6712 5 23.8889 5.5368 22.3662 6.46832L19.9999 8.48333ZM32.2332 18.1249C30.6074 21.1503 28.1163 23.7164 20.1748 30.9331L20.0084 31.0834L19.8272 30.9184C11.9154 23.744 9.40751 21.165 7.7766 18.1429C7.01982 16.7406 6.66659 15.463 6.66659 14.1667C6.66659 10.8743 9.20753 8.33333 12.4999 8.33333C14.3704 8.33333 16.2439 9.21391 17.4621 10.6445L19.9999 13.6247L22.5378 10.6445C23.756 9.21391 25.6295 8.33333 27.4999 8.33333C30.7923 8.33333 33.3333 10.8743 33.3333 14.1667C33.3333 15.4573 32.9831 16.7293 32.2332 18.1249Z" fill="white"/>
</mask>
<g mask="url(#mask0_1002_14943)">
<rect width="40" height="40" fill="#F4EADE"/>
</g>
</svg>
