<svg width="27" height="32" viewBox="0 0 27 32" fill="none" xmlns="http://www.w3.org/2000/svg">
<path d="M7.32772 23.5352C7.14425 23.5114 6.95941 23.4998 6.77441 23.5005L6.64508 23.5019H6.65174H6.19043V24.8205H6.70507C6.95937 24.8387 7.21488 24.8116 7.45971 24.7405L7.44371 24.7445C7.55924 24.6997 7.65928 24.6223 7.7317 24.5218L7.73303 24.5205C7.8101 24.4024 7.8474 24.2627 7.83949 24.1219C7.83157 23.9811 7.77886 23.8466 7.68903 23.7378L7.69037 23.7392C7.59965 23.6286 7.47067 23.5563 7.32905 23.5365H7.32638L7.32772 23.5352Z" fill="#828282"/>
<path d="M10.3169 25.5282H11.5808L10.9489 23.803L10.3169 25.5282Z" fill="#828282"/>
<path d="M24.435 0H2.3679C1.05996 0 0 1.05996 0 2.3679V29.6321C0 30.94 1.05996 32 2.3679 32H24.4363C25.7443 32 26.8042 30.94 26.8042 29.6321V2.3679C26.8042 1.05996 25.7443 0 24.4363 0H24.435ZM13.8754 3.62652C13.9714 3.63718 14.0794 3.63718 14.1754 3.64785C14.4981 3.67985 14.7847 3.80784 15.0127 4.00383L15.01 4.0025C15.5074 4.44115 15.9193 4.96246 16.2273 5.54777L16.242 5.5771C16.4007 5.85976 16.5593 6.19841 16.694 6.54906L16.7126 6.60506C15.8847 6.71705 14.902 6.79438 13.9074 6.81838H13.8754V3.62652ZM17.1006 14.8327C16.0409 14.6798 14.9726 14.5943 13.9021 14.5767H13.8754V11.9955H17.5019C17.4606 13.0248 17.3153 13.9994 17.0753 14.9354L17.0966 14.838L17.1006 14.8327ZM13.8754 15.7207C14.8795 15.7369 15.8817 15.813 16.8766 15.9487L16.746 15.934C16.5989 16.3375 16.4224 16.7296 16.218 17.1073L16.242 17.0593C15.9357 17.6547 15.52 18.187 15.0167 18.6286L15.01 18.6339C14.7767 18.8342 14.4869 18.9571 14.1807 18.9859H14.1741C14.0755 18.9989 13.9762 19.006 13.8768 19.0072H13.8741L13.8754 15.7207ZM17.058 17.4993C17.2806 17.1006 17.4939 16.63 17.6699 16.142L17.6913 16.074C18.1846 16.1593 18.6872 16.2673 19.1845 16.394H19.1952C19.0885 16.5233 18.9699 16.6406 18.8632 16.7486C18.2013 17.4149 17.422 17.9532 16.5646 18.3366L16.5166 18.3566C16.7086 18.1086 16.8873 17.8299 17.0406 17.5366L17.0553 17.5059L17.058 17.4993ZM21.0845 11.9928C20.9771 13.2225 20.5776 14.4087 19.9192 15.4527L19.9378 15.4207L19.8085 15.3887C19.2202 15.2335 18.627 15.0975 18.0299 14.9807C18.2592 14.0994 18.4112 13.0755 18.4552 12.0235L18.4566 11.9942L21.0845 11.9928ZM13.8754 7.95434C14.9933 7.9317 16.1089 7.844 17.2166 7.69168L17.0686 7.70901C17.3073 8.57698 17.4659 9.58227 17.5073 10.6182L17.5086 10.6449H13.8821L13.8754 7.95434ZM18.0006 7.55835C18.6006 7.45169 19.1739 7.32236 19.7472 7.16104L19.8752 7.12904C20.5311 8.12633 20.9631 9.32361 21.0738 10.6142L21.0751 10.6422H18.4392C18.4037 9.56871 18.2481 8.50255 17.9753 7.46369L17.9979 7.56368L18.0006 7.55835ZM19.1139 6.14374C18.6312 6.26241 18.1392 6.36907 17.6566 6.4544C17.487 5.97908 17.2815 5.51733 17.042 5.07312L17.0686 5.12645C16.8997 4.81781 16.7118 4.51992 16.506 4.23449L16.5233 4.25982C17.3972 4.64737 18.1925 5.19192 18.8699 5.86642C18.9445 5.96242 19.0312 6.04908 19.1165 6.14508L19.1139 6.14374ZM11.8075 4.00117C12.0328 3.80651 12.3208 3.67851 12.6368 3.64785H12.6435C12.7315 3.63585 12.8355 3.62785 12.9408 3.62652H12.9435V6.80772C11.9505 6.79154 10.9594 6.7154 9.97558 6.57973L10.1036 6.59439C10.2622 6.18374 10.4209 5.84509 10.5982 5.51844L10.5742 5.56644C10.8929 4.95713 11.2969 4.43982 11.7795 4.00783L11.7848 4.00383L11.8075 4.00117ZM8.79697 14.982C8.18633 15.0994 7.58635 15.2287 7.01837 15.39L6.88905 15.422C6.23487 14.399 5.84161 13.2312 5.74376 12.0208L5.74243 11.9942H8.37832C8.40765 13.0701 8.55698 14.0981 8.81563 15.082L8.7943 14.9874L8.79697 14.982ZM7.62902 16.406C8.12195 16.2779 8.62017 16.1712 9.12229 16.086C9.32228 16.6446 9.5356 17.114 9.78093 17.5646L9.75426 17.5113C9.94092 17.8486 10.1209 18.1326 10.3169 18.4032L10.2996 18.3779C9.42573 17.9904 8.63038 17.4458 7.953 16.7713C7.84634 16.6526 7.73968 16.5353 7.63302 16.406H7.62902ZM10.0716 15.934C10.9249 15.81 11.9195 15.7327 12.9288 15.7207H12.9421V19.0085C12.702 18.9948 12.4626 18.9699 12.2248 18.9339C12.0764 18.8435 11.9351 18.7419 11.8022 18.6299L11.8075 18.6339C11.3115 18.1968 10.899 17.6732 10.5902 17.0886L10.5756 17.0593C10.3903 16.7183 10.2286 16.365 10.0916 16.002L10.0702 15.9393L10.0716 15.934ZM12.9435 14.5727C11.7848 14.5954 10.6689 14.6874 9.5756 14.8474L9.71959 14.83C9.47711 13.9106 9.33715 12.9671 9.30228 12.0168L9.30095 11.9915H12.9435V14.5727ZM9.75159 7.70635C10.8042 7.86152 11.8662 7.94394 12.9301 7.953H12.9435V10.6422H9.30095C9.35028 9.5796 9.51027 8.57698 9.77026 7.61568L9.74759 7.71434L9.75159 7.70635ZM10.2969 4.25716C10.1182 4.50381 9.93692 4.78647 9.77293 5.08112L9.75026 5.12512C9.52646 5.53073 9.33606 5.95389 9.18095 6.3904L9.16229 6.45306C8.67339 6.36484 8.18739 6.26124 7.70501 6.14241H7.69435C7.77778 6.04739 7.86358 5.95448 7.95167 5.86376C8.61674 5.20646 9.3932 4.67243 10.2449 4.28649L10.2942 4.26649L10.2969 4.25716ZM7.07304 7.1597C7.64102 7.31036 8.21966 7.43836 8.81963 7.55702C8.55713 8.55676 8.40644 9.58256 8.37032 10.6156L8.36899 10.6422H5.73309C5.84058 9.37746 6.26271 8.15966 6.96104 7.0997L6.94371 7.1277L7.07304 7.1597ZM8.27299 25.3189C8.12674 25.4206 7.96386 25.496 7.79168 25.5416L7.78101 25.5443C7.50051 25.5883 7.21698 25.6101 6.93304 25.6096L6.79972 25.6083H6.80638H6.19574V27.3655H5.25311V22.7057H6.76372C7.14686 22.6872 7.53084 22.7141 7.90767 22.7857L7.87701 22.7804C8.14526 22.8554 8.38168 23.016 8.55031 23.2377L8.55298 23.2404C8.72097 23.4977 8.82097 23.8123 8.82097 24.151C8.82097 24.4123 8.7623 24.659 8.65564 24.879L8.65964 24.8683C8.57487 25.0516 8.44222 25.2087 8.27565 25.3229L8.27166 25.3256L8.27299 25.3189ZM12.3008 27.3642L11.8928 26.3042H10.0262L9.6396 27.3642H8.64364L10.4569 22.7044H11.4529L13.3168 27.3642H12.3008ZM17.154 26.7536C17.0051 26.9879 16.787 27.1701 16.53 27.2749L16.5206 27.2775C16.246 27.3869 15.9287 27.4509 15.5954 27.4509L15.498 27.4495H15.502C15.0121 27.48 14.5274 27.3343 14.1354 27.0389L14.1407 27.0429C13.8083 26.7346 13.6057 26.3112 13.5741 25.8589V25.8536L14.4847 25.7683C14.5167 26.0349 14.6367 26.2682 14.8167 26.4416C15.0194 26.5788 15.2578 26.6538 15.5026 26.6571C15.7473 26.6604 15.9877 26.592 16.194 26.4602L16.1887 26.4629C16.2591 26.4104 16.3168 26.3428 16.3576 26.265C16.3985 26.1873 16.4214 26.1013 16.4247 26.0136V26.0123V26.0016C16.4248 25.9036 16.3903 25.8087 16.3273 25.7336V25.7349C16.2318 25.6435 16.117 25.5747 15.9913 25.5336L15.9847 25.5323C15.878 25.4896 15.6207 25.4256 15.238 25.3283C14.8518 25.256 14.4871 25.0969 14.1714 24.863L14.1781 24.8683C14.0445 24.7554 13.9371 24.6147 13.8634 24.456C13.7898 24.2974 13.7515 24.1246 13.7514 23.9497V23.9243V23.9163C13.7514 23.671 13.8274 23.4444 13.9581 23.2577L13.9554 23.2617C14.0994 23.055 14.2954 22.8924 14.5247 22.7937L14.5327 22.791C14.7874 22.6884 15.082 22.6297 15.3914 22.6297L15.4567 22.6311H15.454C15.9276 22.5931 16.3985 22.7323 16.7753 23.0217L16.77 23.0177C16.9147 23.1425 17.0308 23.297 17.1104 23.4707C17.19 23.6444 17.2313 23.8332 17.2313 24.0243V24.047V24.0457L16.2887 24.0883C16.2666 23.8921 16.1754 23.7101 16.0313 23.575C15.8758 23.4676 15.6911 23.4104 15.502 23.411L15.4287 23.4137H15.4314C15.2034 23.398 14.9767 23.459 14.7874 23.587L14.7914 23.5844C14.7453 23.6173 14.7076 23.6607 14.6814 23.711C14.6552 23.7612 14.6413 23.817 14.6407 23.8737V23.8777C14.6407 23.9897 14.6954 24.0897 14.7794 24.1523H14.7807C15.0314 24.3003 15.3234 24.4097 15.634 24.4603L15.6487 24.4616C16.0367 24.5456 16.3767 24.6603 16.698 24.807L16.666 24.7936C16.878 24.907 17.0513 25.067 17.1766 25.2603L17.1793 25.2656C17.3006 25.4716 17.3642 25.7065 17.3633 25.9456L17.3619 26.0069V26.0042V26.0402C17.3619 26.3096 17.2819 26.5602 17.1433 26.7682L17.146 26.7629L17.154 26.7536ZM21.4924 26.7536C21.3436 26.9879 21.1255 27.1701 20.8685 27.2749L20.8591 27.2775C20.5845 27.3869 20.2672 27.4509 19.9338 27.4509L19.8365 27.4495H19.8405C19.3506 27.48 18.8659 27.3343 18.4739 27.0389L18.4792 27.0429C18.1468 26.7346 17.9441 26.3112 17.9126 25.8589V25.8536L18.8232 25.7683C18.8552 26.0349 18.9752 26.2682 19.1552 26.4416C19.3579 26.5788 19.5963 26.6538 19.841 26.6571C20.0858 26.6604 20.3262 26.592 20.5325 26.4602L20.5271 26.4629C20.5975 26.4104 20.6553 26.3428 20.6961 26.265C20.737 26.1873 20.7599 26.1013 20.7631 26.0136V26.0123V26.0016C20.7633 25.9036 20.7288 25.8087 20.6658 25.7336V25.7349C20.5703 25.6435 20.4555 25.5747 20.3298 25.5336L20.3232 25.5323C20.2165 25.4896 19.9592 25.4256 19.5765 25.3283C19.1903 25.256 18.8256 25.0969 18.5099 24.863L18.5166 24.8683C18.383 24.7554 18.2756 24.6147 18.2019 24.456C18.1283 24.2974 18.09 24.1246 18.0899 23.9497V23.9243V23.9163C18.0899 23.671 18.1659 23.4444 18.2966 23.2577L18.2939 23.2617C18.4359 23.0553 18.6332 22.8931 18.8632 22.7937L18.8712 22.791C19.1259 22.6884 19.4219 22.6297 19.7298 22.6297L19.7952 22.6311H19.7925C20.2661 22.5931 20.737 22.7323 21.1138 23.0217L21.1085 23.0177C21.2532 23.1425 21.3693 23.297 21.4489 23.4707C21.5285 23.6444 21.5697 23.8332 21.5698 24.0243V24.047V24.0457L20.6271 24.0883C20.6051 23.8921 20.5139 23.7101 20.3698 23.575C20.2142 23.4676 20.0295 23.4104 19.8405 23.411L19.7672 23.4137H19.7698C19.5419 23.398 19.3152 23.459 19.1259 23.587L19.1299 23.5844C19.0838 23.6173 19.0461 23.6607 19.0199 23.711C18.9937 23.7612 18.9798 23.817 18.9792 23.8737V23.8777C18.9792 23.9897 19.0339 24.0897 19.1179 24.1523H19.1192C19.3685 24.3003 19.6605 24.4083 19.9712 24.4603L19.9858 24.463C20.3738 24.547 20.7138 24.6616 21.0351 24.8083L21.0031 24.795C21.2151 24.9083 21.3884 25.0683 21.5138 25.2616L21.5164 25.2669C21.6378 25.4729 21.7014 25.7078 21.7004 25.9469L21.6991 26.0083V26.0056L21.7018 26.0842C21.7022 26.3301 21.6253 26.5699 21.4818 26.7696L21.4844 26.7656L21.4924 26.7536Z" fill="#828282"/>
</svg>
