<svg width="16" height="16" viewBox="0 0 16 16" fill="none" xmlns="http://www.w3.org/2000/svg">
<path d="M8 0C10.1217 0 12.1566 0.842855 13.6569 2.34315C15.1571 3.84344 16 5.87827 16 8C16 10.1217 15.1571 12.1566 13.6569 13.6569C12.1566 15.1571 10.1217 16 8 16C5.87827 16 3.84344 15.1571 2.34315 13.6569C0.842855 12.1566 0 10.1217 0 8C0 5.87827 0.842855 3.84344 2.34315 2.34315C3.84344 0.842855 5.87827 0 8 0ZM8 14.8571C9.81863 14.8571 11.5628 14.1347 12.8487 12.8487C14.1347 11.5628 14.8571 9.81863 14.8571 8C14.8571 6.18137 14.1347 4.43723 12.8487 3.15127C11.5628 1.8653 9.81863 1.14286 8 1.14286C6.18137 1.14286 4.43723 1.8653 3.15127 3.15127C1.8653 4.43723 1.14286 6.18137 1.14286 8C1.14286 9.81863 1.8653 11.5628 3.15127 12.8487C4.43723 14.1347 6.18137 14.8571 8 14.8571ZM8.85714 11.7143C8.85714 11.9416 8.76684 12.1596 8.60609 12.3204C8.44535 12.4811 8.22733 12.5714 8 12.5714C7.77267 12.5714 7.55465 12.4811 7.39391 12.3204C7.23316 12.1596 7.14286 11.9416 7.14286 11.7143C7.14286 11.487 7.23316 11.2689 7.39391 11.1082C7.55465 10.9474 7.77267 10.8571 8 10.8571C8.22733 10.8571 8.44535 10.9474 8.60609 11.1082C8.76684 11.2689 8.85714 11.487 8.85714 11.7143ZM8 3.42857C8.15155 3.42857 8.2969 3.48878 8.40406 3.59594C8.51123 3.7031 8.57143 3.84845 8.57143 4V9.14286C8.57143 9.29441 8.51123 9.43976 8.40406 9.54692C8.2969 9.65408 8.15155 9.71429 8 9.71429C7.84845 9.71429 7.7031 9.65408 7.59594 9.54692C7.48878 9.43976 7.42857 9.29441 7.42857 9.14286V4C7.42857 3.84845 7.48878 3.7031 7.59594 3.59594C7.7031 3.48878 7.84845 3.42857 8 3.42857Z" fill="#282828"/>
</svg>
