<svg xmlns="http://www.w3.org/2000/svg" viewBox="0 0 220.7 262.53"><defs><style>.cls-1{fill:#282828;}.cls-2{fill:#fcb629;}.cls-3{fill:#395762;}.cls-4{fill:none;stroke:#fff;stroke-linecap:square;stroke-linejoin:round;stroke-width:6px;}</style></defs><g id="圖層_2" data-name="圖層 2"><g id="圖層_1-2" data-name="圖層 1"><path class="cls-1" d="M27.56,251h.61a21.32,21.32,0,0,1-.93,3.28A15.76,15.76,0,0,1,25.83,257q-3.57,5.53-9.54,5.53a12.27,12.27,0,0,1-7-2.2,15.61,15.61,0,0,1-5.16-5.93,17.3,17.3,0,0,1-1.92-8,18.17,18.17,0,0,1,3-9.84,17,17,0,0,1,3.37-3.77,10.23,10.23,0,0,1,6.7-2.39,9.72,9.72,0,0,1,2.39.28,7.61,7.61,0,0,1,2.15.88,12.73,12.73,0,0,1,2.08,1.61,3.49,3.49,0,0,0,1.76,1q1.24,0,3.13-3.28h.61l.51,14.87h-.58c-.2-1.08-.39-1.95-.57-2.63A16.33,16.33,0,0,0,26,241a23,23,0,0,0-2.86-5.35,12.54,12.54,0,0,0-3.61-3.41,7.67,7.67,0,0,0-4-1.17,5.25,5.25,0,0,0-4,1.65,10.76,10.76,0,0,0-2.3,5.13,44.07,44.07,0,0,0-.74,8.86,52.12,52.12,0,0,0,.26,5.49,19.89,19.89,0,0,0,.82,4,9.33,9.33,0,0,0,1.4,2.75,6.87,6.87,0,0,0,2.52,2,7.59,7.59,0,0,0,3.24.69,9.21,9.21,0,0,0,3.14-.53,9.46,9.46,0,0,0,2.81-1.58A12.54,12.54,0,0,0,25,257a14.73,14.73,0,0,0,1.43-2.58A26.45,26.45,0,0,0,27.56,251Z"/><path class="cls-1" d="M45.66,230.36h.65l9.88,27a9.35,9.35,0,0,0,1.06,2.08A3.48,3.48,0,0,0,60.32,261H61v.86H46.72V261h1.86a3.43,3.43,0,0,0,2-.48,1.71,1.71,0,0,0,.64-1.47,5.55,5.55,0,0,0-.25-1.5c-.17-.59-.55-1.66-1.12-3.21,0-.09-.09-.24-.16-.45s-.15-.4-.23-.59l-.4-1.13H38.68l-.79,2.3a7.45,7.45,0,0,0-.39,2.37,4.81,4.81,0,0,0,.45,2,3.55,3.55,0,0,0,1.17,1.5,3,3,0,0,0,.85.48,4.89,4.89,0,0,0,1.09.17v.86h-10V261a5.63,5.63,0,0,0,1.73-.49,6.2,6.2,0,0,0,1.44-1.11c1.24-1.21,2.45-3.48,3.64-6.83ZM43.8,237.6,39,251.38h9.76Z"/><path class="cls-1" d="M62.66,231H72.92l9.25,23.65L91.35,231H101v.82h-.89a4,4,0,0,0-3.37,1.38,6.8,6.8,0,0,0-1.1,4.24v18a6.71,6.71,0,0,0,1.11,4.22,4,4,0,0,0,3.36,1.4H101v.86H85.16V261h1a4,4,0,0,0,3.35-1.39,6.75,6.75,0,0,0,1.1-4.23v-21h-.07L80,261.89h-.59L68.78,234.48h-.07v19.93a8.84,8.84,0,0,0,.63,3.53,4.83,4.83,0,0,0,1.86,2.23,5.87,5.87,0,0,0,3,.86v.86H62.66V261h.24a4.46,4.46,0,0,0,3.73-1.75A7.56,7.56,0,0,0,68,254.54V237.42a6.78,6.78,0,0,0-1.09-4.25,4,4,0,0,0-3.37-1.37h-.86Z"/><path class="cls-1" d="M102.81,231h14.66c.86,0,1.81,0,2.84.11s2,.17,2.78.28a15.52,15.52,0,0,1,2,.39,8,8,0,0,1,4.44,2.77,7.9,7.9,0,0,1,1.54,5,8.56,8.56,0,0,1-.74,3.63,7.15,7.15,0,0,1-2.17,2.69,10.4,10.4,0,0,1-3.51,1.67,17.62,17.62,0,0,1-4.67.57h-6.74v7.35q0,5.66,4.47,5.66H119v.82H102.77v-.82h.86q4.47,0,4.47-5.66v-18q0-5.62-4.47-5.62h-.82Zm10.47.82v15.4h4.91c2.42,0,4.22-.63,5.38-1.89s1.74-3.21,1.74-5.85c0-3.09-.81-5.23-2.41-6.44a5.59,5.59,0,0,0-2-.93,12.39,12.39,0,0,0-2.89-.29Z"/><path class="cls-1" d="M134.39,261h.69a4,4,0,0,0,3.37-1.39,6.75,6.75,0,0,0,1.1-4.23V236.73a10.76,10.76,0,0,0-.44-2.32,3.62,3.62,0,0,0-.87-1.44,4,4,0,0,0-3.16-1.17h-.69V231h15.47v.82h-.68a4.05,4.05,0,0,0-3.36,1.37,6.78,6.78,0,0,0-1.09,4.25v18a6.75,6.75,0,0,0,1.1,4.23,4,4,0,0,0,3.35,1.39h.68v.86H134.39Z"/><path class="cls-1" d="M168.59,230.36a13.93,13.93,0,0,1,11.26,5.42,17.4,17.4,0,0,1,3.71,10.71,16.74,16.74,0,0,1-2,8,15.25,15.25,0,0,1-5.32,5.82,13.49,13.49,0,0,1-7.38,2.15,13.88,13.88,0,0,1-5.76-1.22,14.68,14.68,0,0,1-4.75-3.44,16.19,16.19,0,0,1-3.21-5.19,16.87,16.87,0,0,1-1.15-6.19,16.66,16.66,0,0,1,2-8,15.74,15.74,0,0,1,5.32-5.9A13,13,0,0,1,168.59,230.36Zm.45.8a6.66,6.66,0,0,0-3,.7,6.41,6.41,0,0,0-2.38,2,13.44,13.44,0,0,0-1.81,3.3,21.28,21.28,0,0,0-1.12,4.27,32.39,32.39,0,0,0-.38,5.08,29.74,29.74,0,0,0,.6,6.21,17.47,17.47,0,0,0,1.72,4.82,8.85,8.85,0,0,0,2.69,3.09,6.1,6.1,0,0,0,3.48,1.06,6.28,6.28,0,0,0,4.53-1.87,12.08,12.08,0,0,0,2.95-5.34,29.16,29.16,0,0,0,1-8.26,28.73,28.73,0,0,0-.56-5.79,18.12,18.12,0,0,0-1.62-4.7,9.57,9.57,0,0,0-2.55-3.18,6.07,6.07,0,0,0-1.7-1A5,5,0,0,0,169,231.16Z"/><path class="cls-1" d="M187.41,231h9.86l17.07,22.26V239.92a12.54,12.54,0,0,0-.66-4.26,5.87,5.87,0,0,0-1.91-2.78,4.41,4.41,0,0,0-1.34-.75,8.59,8.59,0,0,0-1.89-.33V231H220.7v.82h-.24a4.53,4.53,0,0,0-4,2.12A11.31,11.31,0,0,0,215,240.1v22.1h-.58l-21.2-27.41v18.36a14.53,14.53,0,0,0,.51,4.28,5,5,0,0,0,1.65,2.51,4.76,4.76,0,0,0,2.27.91,14.09,14.09,0,0,0,2.11.22v.82H187v-.82a7.26,7.26,0,0,0,3.21-.87A4.39,4.39,0,0,0,192,258a9.85,9.85,0,0,0,.59-3.63V236.89a6,6,0,0,0-.57-2.74,4,4,0,0,0-1.67-1.74,5.25,5.25,0,0,0-2.63-.61h-.32Z"/><path class="cls-2" d="M110.9,0V207.35A103.68,103.68,0,0,0,110.9,0Z"/><path class="cls-3" d="M103.05,0a104.15,104.15,0,0,0,0,208.29Z"/><polyline class="cls-4" points="107.01 22.19 107.01 60.28 107.01 186.1"/><line class="cls-4" x1="81.61" y1="36.04" x2="107.01" y2="56.48"/><polyline class="cls-4" points="42.37 66.05 90.85 93.76 107.01 87.99"/><polyline class="cls-4" points="65.45 49.89 69.69 81.67 38.23 93.76"/><polyline class="cls-4" points="40.06 144.55 90.85 119.49 90.85 93.76"/><polyline class="cls-4" points="40.06 119.15 66.72 131.4 63.15 163.02"/><line class="cls-4" x1="83.92" y1="172.25" x2="107.01" y2="154.26"/><line class="cls-4" x1="90.85" y1="119.49" x2="107.01" y2="124.65"/><path class="cls-4" d="M107.77,52.77a52.58,52.58,0,1,1,0,105.15"/><polyline class="cls-4" points="176.95 61 148.29 68.52 166.95 47"/><polyline class="cls-4" points="139.81 29.47 124.86 55.05 122.83 26.64"/><polyline class="cls-4" points="185.95 118.69 160.82 103 187.95 102.69"/><polyline class="cls-4" points="136.51 183.07 130.56 156.04 146.68 178.44"/><polyline class="cls-4" points="174.56 156.39 155.52 136.29 180.89 147.17"/></g></g></svg>